<svg width="100" height="100" viewBox="0 0 100 100" fill="none" xmlns="http://www.w3.org/2000/svg">
<path d="M0 25C0 11.1929 11.1929 0 25 0H75C88.8071 0 100 11.1929 100 25V75C100 88.8071 88.8071 100 75 100H25C11.1929 100 0 88.8071 0 75V25Z" fill="white"/>
<path d="M18.7532 29.245C18.7524 29.2458 18.7518 29.2467 18.7514 29.2478C18.6308 29.5676 18.2797 30.4888 18.703 31.0366C19.2102 31.6954 20.7026 31.7811 21.3888 31.2913C24.18 29.305 29.0714 26.4713 35.5802 25.7977C41.1209 25.2222 44.7723 26.5276 45.554 26.8191C47.5758 27.5759 50.3278 28.6045 52.075 31.4187C53.7929 34.1887 53.5429 37.0959 53.4817 37.6812C52.7048 45.0509 43.3117 49.1435 43.5078 49.4374C43.7479 49.795 58.2628 44.5512 58.9783 34.9969C59.2503 31.3648 57.4541 28.0877 57.3168 27.8404C55.4299 24.4825 52.5357 22.9248 51.0409 22.146C38.4932 15.6051 20.0731 25.7802 18.755 29.2423C18.7546 29.2434 18.754 29.2442 18.7532 29.245Z" fill="black"/>
<path d="M22.4984 32.9479C22.4984 32.9487 22.4982 32.9495 22.4978 32.9502C22.3748 33.146 22.0287 33.6918 22.1973 34.1947C22.3711 34.7086 22.9929 34.9136 23.2133 34.987C25.2304 35.6528 30.3003 32.7922 35.1425 32.1594C38.5306 31.7163 40.9884 32.4631 42.1194 32.8986C43.5319 33.4454 45.4585 34.1896 46.6801 36.2275C47.7719 38.0501 47.7034 39.9412 47.6642 40.7589C47.4072 45.9737 43.1574 49.1584 43.4316 49.4343C43.7743 49.7811 51.2506 45.6497 51.5101 38.8172C51.5346 38.1463 51.5933 35.9288 50.3473 33.6377C50.1147 33.2099 48.9543 31.1569 45.9579 29.5165C36.5396 24.3633 23.5729 31.2556 22.499 32.9457C22.4986 32.9464 22.4984 32.9471 22.4984 32.9479Z" fill="url(#paint0_linear_168_9)"/>
<path d="M59.105 20.0018C58.7765 19.9129 67.9237 23.1667 70.1057 30.8595C72.2239 38.3238 66.6684 45.8998 65.5014 47.4125C61.4488 52.651 56.3542 54.5038 51.8137 56.1509C42.8479 59.4072 35.0663 58.4961 31.6046 57.8717C28.5231 57.3176 25.9145 56.4598 23.8761 55.6358C22.6213 55.1285 21.4488 54.4437 20.3298 53.6823C20.0281 53.477 19.7264 53.2717 19.4247 53.0664C18.1673 52.2107 16.7023 51.136 15.314 51.7574C14.8107 51.9827 14.4108 52.3641 14.2075 52.8388C13.5504 54.3798 15.2144 55.7968 16.5401 56.8211C18.437 58.2867 21.047 60.0465 24.3133 61.5772C39.092 68.5061 59.6959 67.2041 69.4658 55.7499C70.8093 54.1738 74.9379 49.3363 75.6759 42.042C75.8205 40.6055 76.1221 37.3924 74.9821 33.8467C71.6772 23.555 60.4485 20.3596 59.105 20.0018Z" fill="black"/>
<path d="M67.4621 22.1984C67.312 22.4532 77.6511 25.7022 80.7736 34.8201C83.4605 42.6668 79.3366 50.5784 78.3745 52.4265C71.6302 65.3703 56.7145 68.7867 52.3716 69.5758C51.973 69.6482 51.6679 69.6982 51.4711 69.7307C28.4724 73.3893 14.0168 58.103 13.3943 57.2588C13.3599 57.2114 13.1581 56.9242 12.7865 56.7369C12.2182 56.4497 11.3324 56.4247 10.6853 56.9542C9.35377 58.0419 10.5113 60.1116 11.4668 61.5409C13.3549 64.3653 16.1334 67.8062 20.0919 70.9294C36.5282 83.8982 61.6232 82.13 76.9327 70.8844C80.0034 68.6293 87.011 63.4798 89.2796 54.1571C89.8357 51.8745 90.8175 46.2805 88.7137 40.1669C84.0731 26.6887 67.6638 21.8588 67.4621 22.1984Z" fill="url(#paint1_linear_168_9)"/>
<defs>
<linearGradient id="paint0_linear_168_9" x1="0.00464533" y1="50.004" x2="100.003" y2="50.004" gradientUnits="userSpaceOnUse">
<stop stop-color="#BE3350"/>
<stop offset="1" stop-color="#B62A37"/>
</linearGradient>
<linearGradient id="paint1_linear_168_9" x1="-0.00154669" y1="51.8173" x2="99.9945" y2="51.8173" gradientUnits="userSpaceOnUse">
<stop stop-color="#BE3350"/>
<stop offset="1" stop-color="#B62A37"/>
</linearGradient>
</defs>
</svg>
