<svg width="147" height="89" viewBox="0 0 147 89" fill="none" xmlns="http://www.w3.org/2000/svg">
<path d="M42.852 8.4757C42.7319 8.76756 42.379 9.61396 42.803 10.1169C43.3102 10.7208 44.8027 10.7994 45.4888 10.3504C48.28 8.52958 53.1714 5.932 59.6802 5.3146C65.2209 4.787 68.8723 5.98364 69.654 6.25081C71.6758 6.94454 74.4278 7.88748 76.175 10.4671C77.8929 13.0063 77.6429 15.6712 77.5817 16.2078C76.8048 22.9633 67.4117 26.7149 67.6078 26.9843C67.8479 27.3121 82.3628 22.5053 83.0783 13.7472C83.3503 10.4177 81.5541 7.41376 81.4168 7.18701C79.5299 4.10898 76.6357 2.6811 75.1409 1.96716C62.5914 -4.02949 44.168 5.30113 42.8544 8.47345L42.852 8.4757Z" fill="black"/>
<path d="M46.5984 11.8701C46.476 12.0488 46.1284 12.55 46.2973 13.0118C46.4711 13.4829 47.0929 13.6708 47.3133 13.7381C49.3304 14.3484 54.4003 11.7262 59.2425 11.1461C62.6306 10.74 65.0884 11.4245 66.2194 11.8237C67.6319 12.3249 69.5585 13.0071 70.7801 14.8752C71.8719 16.546 71.8034 18.2794 71.7642 19.0289C71.5072 23.8093 67.2574 26.7285 67.5316 26.9814C67.8743 27.2994 75.3506 23.5122 75.6101 17.2491C75.6346 16.6342 75.6933 14.6014 74.4473 12.5013C74.2147 12.1091 73.0543 10.2271 70.0579 8.72343C60.6379 3.99881 47.6682 10.32 46.5984 11.8678V11.8701Z" fill="url(#paint0_linear_155_5)"/>
<path d="M83.205 0.00162068C82.8765 -0.0798078 92.0237 2.9028 94.2057 9.95451C96.3239 16.7968 90.7684 23.7415 89.6014 25.1281C85.5488 29.9301 80.4542 31.6284 75.9137 33.1384C66.948 36.1233 59.1663 35.2881 55.7046 34.7157C51.5833 34.0364 48.3079 32.8592 46.1112 31.9239C44.6181 30.9933 43.1275 30.0627 41.6344 29.1321C40.2394 28.5691 38.7684 29.1158 38.3075 30.1022C37.9937 30.7769 38.1653 31.6191 38.6924 32.2868C40.5336 33.7572 43.8262 36.1419 48.4133 38.1125C63.192 44.4639 83.7959 43.2704 93.5658 32.7708C94.9093 31.326 99.0379 26.8916 99.7759 20.2052C99.9205 18.8884 100.222 15.943 99.0821 12.6928C95.7772 3.25876 84.5485 0.329661 83.205 0.00162068Z" fill="black"/>
<path d="M91.5621 2.01523C91.412 2.24873 101.751 5.22704 104.874 13.5851C107.56 20.7779 103.437 28.0302 102.475 29.7243C95.7302 41.5894 80.8145 44.7211 76.4716 45.4445C76.073 45.5109 75.7679 45.5567 75.5711 45.5864C52.5724 48.9402 38.1168 34.9277 37.4943 34.1539C37.4599 34.1104 37.2581 33.8472 36.8865 33.6755C36.3182 33.4122 35.4324 33.3893 34.7853 33.8747C34.18 34.3279 33.9585 35.1818 34.1898 36.0655C35.9983 38.8881 39.1306 43.0248 44.1919 46.6853C60.6282 58.5733 85.7232 56.9525 101.033 46.6441C104.103 44.5769 111.111 39.8565 113.38 31.3107C113.936 29.2183 114.917 24.0904 112.814 18.4863C108.173 6.13129 91.7638 1.70389 91.5621 2.01523Z" fill="url(#paint1_linear_155_5)"/>
<path d="M7.56 86.2C6.46667 86.2 5.46 86.02 4.54 85.66C3.62 85.3 2.82 84.8 2.14 84.16C1.46 83.5067 0.933333 82.7467 0.56 81.88C0.186667 81 0 80.04 0 79C0 77.96 0.186667 77.0067 0.56 76.14C0.933333 75.26 1.46 74.5 2.14 73.86C2.82 73.2067 3.62 72.7 4.54 72.34C5.46 71.98 6.46 71.8 7.54 71.8C8.63333 71.8 9.63333 71.98 10.54 72.34C11.46 72.7 12.26 73.2067 12.94 73.86C13.62 74.5 14.1467 75.26 14.52 76.14C14.8933 77.0067 15.08 77.96 15.08 79C15.08 80.04 14.8933 81 14.52 81.88C14.1467 82.76 13.62 83.52 12.94 84.16C12.26 84.8 11.46 85.3 10.54 85.66C9.63333 86.02 8.64 86.2 7.56 86.2ZM7.54 83.92C8.24667 83.92 8.9 83.8 9.5 83.56C10.1 83.32 10.62 82.98 11.06 82.54C11.5 82.0867 11.84 81.5667 12.08 80.98C12.3333 80.38 12.46 79.72 12.46 79C12.46 78.28 12.3333 77.6267 12.08 77.04C11.84 76.44 11.5 75.92 11.06 75.48C10.62 75.0267 10.1 74.68 9.5 74.44C8.9 74.2 8.24667 74.08 7.54 74.08C6.83333 74.08 6.18 74.2 5.58 74.44C4.99333 74.68 4.47333 75.0267 4.02 75.48C3.58 75.92 3.23333 76.44 2.98 77.04C2.74 77.6267 2.62 78.28 2.62 79C2.62 79.7067 2.74 80.36 2.98 80.96C3.23333 81.56 3.58 82.0867 4.02 82.54C4.46 82.98 4.98 83.32 5.58 83.56C6.18 83.8 6.83333 83.92 7.54 83.92Z" fill="#B92E41"/>
<path d="M24.4545 86.2C23.3612 86.2 22.3545 86.02 21.4345 85.66C20.5145 85.3 19.7145 84.8 19.0345 84.16C18.3545 83.5067 17.8279 82.7467 17.4545 81.88C17.0812 81 16.8945 80.04 16.8945 79C16.8945 77.96 17.0812 77.0067 17.4545 76.14C17.8279 75.26 18.3545 74.5 19.0345 73.86C19.7145 73.2067 20.5145 72.7 21.4345 72.34C22.3545 71.98 23.3545 71.8 24.4345 71.8C25.5279 71.8 26.5279 71.98 27.4345 72.34C28.3545 72.7 29.1545 73.2067 29.8345 73.86C30.5145 74.5 31.0412 75.26 31.4145 76.14C31.7879 77.0067 31.9745 77.96 31.9745 79C31.9745 80.04 31.7879 81 31.4145 81.88C31.0412 82.76 30.5145 83.52 29.8345 84.16C29.1545 84.8 28.3545 85.3 27.4345 85.66C26.5279 86.02 25.5345 86.2 24.4545 86.2ZM24.4345 83.92C25.1412 83.92 25.7945 83.8 26.3945 83.56C26.9945 83.32 27.5145 82.98 27.9545 82.54C28.3945 82.0867 28.7345 81.5667 28.9745 80.98C29.2279 80.38 29.3545 79.72 29.3545 79C29.3545 78.28 29.2279 77.6267 28.9745 77.04C28.7345 76.44 28.3945 75.92 27.9545 75.48C27.5145 75.0267 26.9945 74.68 26.3945 74.44C25.7945 74.2 25.1412 74.08 24.4345 74.08C23.7279 74.08 23.0745 74.2 22.4745 74.44C21.8879 74.68 21.3679 75.0267 20.9145 75.48C20.4745 75.92 20.1279 76.44 19.8745 77.04C19.6345 77.6267 19.5145 78.28 19.5145 79C19.5145 79.7067 19.6345 80.36 19.8745 80.96C20.1279 81.56 20.4745 82.0867 20.9145 82.54C21.3545 82.98 21.8745 83.32 22.4745 83.56C23.0745 83.8 23.7279 83.92 24.4345 83.92Z" fill="#B92E41"/>
<path d="M41.3491 86.2C40.2557 86.2 39.2491 86.02 38.3291 85.66C37.4091 85.3 36.6091 84.8 35.9291 84.16C35.2491 83.5067 34.7224 82.7467 34.3491 81.88C33.9757 81 33.7891 80.04 33.7891 79C33.7891 77.96 33.9757 77.0067 34.3491 76.14C34.7224 75.26 35.2491 74.5 35.9291 73.86C36.6091 73.2067 37.4091 72.7 38.3291 72.34C39.2491 71.98 40.2491 71.8 41.3291 71.8C42.4224 71.8 43.4224 71.98 44.3291 72.34C45.2491 72.7 46.0491 73.2067 46.7291 73.86C47.4091 74.5 47.9357 75.26 48.3091 76.14C48.6824 77.0067 48.8691 77.96 48.8691 79C48.8691 80.04 48.6824 81 48.3091 81.88C47.9357 82.76 47.4091 83.52 46.7291 84.16C46.0491 84.8 45.2491 85.3 44.3291 85.66C43.4224 86.02 42.4291 86.2 41.3491 86.2ZM41.3291 83.92C42.0357 83.92 42.6891 83.8 43.2891 83.56C43.8891 83.32 44.4091 82.98 44.8491 82.54C45.2891 82.0867 45.6291 81.5667 45.8691 80.98C46.1224 80.38 46.2491 79.72 46.2491 79C46.2491 78.28 46.1224 77.6267 45.8691 77.04C45.6291 76.44 45.2891 75.92 44.8491 75.48C44.4091 75.0267 43.8891 74.68 43.2891 74.44C42.6891 74.2 42.0357 74.08 41.3291 74.08C40.6224 74.08 39.9691 74.2 39.3691 74.44C38.7824 74.68 38.2624 75.0267 37.8091 75.48C37.3691 75.92 37.0224 76.44 36.7691 77.04C36.5291 77.6267 36.4091 78.28 36.4091 79C36.4091 79.7067 36.5291 80.36 36.7691 80.96C37.0224 81.56 37.3691 82.0867 37.8091 82.54C38.2491 82.98 38.7691 83.32 39.3691 83.56C39.9691 83.8 40.6224 83.92 41.3291 83.92Z" fill="#B92E41"/>
<path d="M56.2909 77.22L57.4509 72.78L57.7909 74.28C57.3243 74.28 56.9309 74.1333 56.6109 73.84C56.3043 73.5467 56.1509 73.1533 56.1509 72.66C56.1509 72.1667 56.3043 71.7733 56.6109 71.48C56.9309 71.1733 57.3176 71.02 57.7709 71.02C58.2376 71.02 58.6243 71.1733 58.9309 71.48C59.2376 71.7867 59.3909 72.18 59.3909 72.66C59.3909 72.8067 59.3776 72.96 59.3509 73.12C59.3376 73.2667 59.2976 73.44 59.2309 73.64C59.1776 73.8267 59.0843 74.0733 58.9509 74.38L57.9109 77.22H56.2909ZM60.5309 77.22L61.6909 72.78L62.0309 74.28C61.5643 74.28 61.1709 74.1333 60.8509 73.84C60.5443 73.5467 60.3909 73.1533 60.3909 72.66C60.3909 72.1667 60.5443 71.7733 60.8509 71.48C61.1709 71.1733 61.5576 71.02 62.0109 71.02C62.4776 71.02 62.8643 71.1733 63.1709 71.48C63.4776 71.7867 63.6309 72.18 63.6309 72.66C63.6309 72.8067 63.6176 72.96 63.5909 73.12C63.5776 73.2667 63.5376 73.44 63.4709 73.64C63.4176 73.8267 63.3243 74.0733 63.1909 74.38L62.1509 77.22H60.5309Z" fill="#B92E41"/>
<path d="M66.412 86V72H68.532L74.672 82.22H73.532L79.572 72H81.692L81.732 86H79.252L79.232 75.86H79.752L74.632 84.4H73.472L68.272 75.86H68.872V86H66.412Z" fill="#B92E41"/>
<path d="M90.3498 86.14C89.1632 86.14 88.1232 85.9067 87.2298 85.44C86.3498 84.96 85.6632 84.3067 85.1698 83.48C84.6898 82.6533 84.4498 81.7133 84.4498 80.66C84.4498 79.5933 84.6832 78.6533 85.1498 77.84C85.6298 77.0133 86.2832 76.3667 87.1098 75.9C87.9498 75.4333 88.9032 75.2 89.9698 75.2C91.0098 75.2 91.9365 75.4267 92.7498 75.88C93.5632 76.3333 94.2032 76.9733 94.6698 77.8C95.1365 78.6267 95.3698 79.6 95.3698 80.72C95.3698 80.8267 95.3632 80.9467 95.3498 81.08C95.3498 81.2133 95.3432 81.34 95.3298 81.46H86.4298V79.8H94.0098L93.0298 80.32C93.0432 79.7067 92.9165 79.1667 92.6498 78.7C92.3832 78.2333 92.0165 77.8667 91.5498 77.6C91.0965 77.3333 90.5698 77.2 89.9698 77.2C89.3565 77.2 88.8165 77.3333 88.3498 77.6C87.8965 77.8667 87.5365 78.24 87.2698 78.72C87.0165 79.1867 86.8898 79.74 86.8898 80.38V80.78C86.8898 81.42 87.0365 81.9867 87.3298 82.48C87.6232 82.9733 88.0365 83.3533 88.5698 83.62C89.1032 83.8867 89.7165 84.02 90.4098 84.02C91.0098 84.02 91.5498 83.9267 92.0298 83.74C92.5098 83.5533 92.9365 83.26 93.3098 82.86L94.6498 84.4C94.1698 84.96 93.5632 85.3933 92.8298 85.7C92.1098 85.9933 91.2832 86.14 90.3498 86.14Z" fill="#B92E41"/>
<path d="M105.287 84.84V77.44H101.188L101.128 79.16C101.101 79.7733 101.061 80.3667 101.007 80.94C100.954 81.5 100.867 82.02 100.747 82.5C100.627 82.9667 100.454 83.3533 100.228 83.66C100.001 83.9667 99.7008 84.1667 99.3275 84.26L96.8475 83.88C97.2475 83.88 97.5675 83.7533 97.8075 83.5C98.0608 83.2333 98.2542 82.8733 98.3875 82.42C98.5342 81.9533 98.6408 81.4267 98.7075 80.84C98.7742 80.24 98.8208 79.62 98.8475 78.98L98.9875 75.32H107.787V84.84H105.287ZM96.4675 88.38V83.88H109.368V88.38H107.027V86H98.7875V88.38H96.4675Z" fill="#B92E41"/>
<path d="M111.6 86V75.32H114.1V82.36L120 75.32H122.28V86H119.78V78.96L113.9 86H111.6Z" fill="#B92E41"/>
<path d="M125.643 86V75.32H128.143V79.66H133.523V75.32H136.023V86H133.523V81.78H128.143V86H125.643Z" fill="#B92E41"/>
<path d="M138.674 77.22L139.834 72.78L140.174 74.28C139.707 74.28 139.314 74.1333 138.994 73.84C138.687 73.5467 138.534 73.1533 138.534 72.66C138.534 72.1667 138.687 71.7733 138.994 71.48C139.314 71.1733 139.7 71.02 140.154 71.02C140.62 71.02 141.007 71.1733 141.314 71.48C141.62 71.7867 141.774 72.18 141.774 72.66C141.774 72.8067 141.76 72.96 141.734 73.12C141.72 73.2667 141.68 73.44 141.614 73.64C141.56 73.8267 141.467 74.0733 141.334 74.38L140.294 77.22H138.674ZM142.914 77.22L144.074 72.78L144.414 74.28C143.947 74.28 143.554 74.1333 143.234 73.84C142.927 73.5467 142.774 73.1533 142.774 72.66C142.774 72.1667 142.927 71.7733 143.234 71.48C143.554 71.1733 143.94 71.02 144.394 71.02C144.86 71.02 145.247 71.1733 145.554 71.48C145.86 71.7867 146.014 72.18 146.014 72.66C146.014 72.8067 146 72.96 145.974 73.12C145.96 73.2667 145.92 73.44 145.854 73.64C145.8 73.8267 145.707 74.0733 145.574 74.38L144.534 77.22H142.914Z" fill="#B92E41"/>
<defs>
<linearGradient id="paint0_linear_155_5" x1="0.00678282" y1="44.1935" x2="146.018" y2="44.1935" gradientUnits="userSpaceOnUse">
<stop stop-color="#BE3350"/>
<stop offset="1" stop-color="#B62A37"/>
</linearGradient>
<linearGradient id="paint1_linear_155_5" x1="-0.00225838" y1="45.7961" x2="146.006" y2="45.7961" gradientUnits="userSpaceOnUse">
<stop stop-color="#BE3350"/>
<stop offset="1" stop-color="#B62A37"/>
</linearGradient>
</defs>
</svg>
